<svg width="175" height="42" viewBox="0 0 175 42" fill="none" xmlns="http://www.w3.org/2000/svg">
<rect x="72" y="10" width="43" height="26" rx="3" fill="#E8820A"/>
<path d="M80.6914 14V29H78.1035V14H80.6914ZM80.2812 23.3359H79.5195C79.5195 22.6003 79.6172 21.9232 79.8125 21.3047C80.0078 20.6862 80.2845 20.1491 80.6426 19.6934C81.0007 19.2311 81.4271 18.873 81.9219 18.6191C82.4232 18.3652 82.9766 18.2383 83.582 18.2383C84.1029 18.2383 84.5749 18.3132 84.998 18.4629C85.4277 18.6061 85.7956 18.8372 86.1016 19.1562C86.4076 19.4753 86.6419 19.8919 86.8047 20.4062C86.974 20.9141 87.0586 21.5326 87.0586 22.2617V29H84.4609V22.2422C84.4609 21.7539 84.3893 21.3698 84.2461 21.0898C84.1029 20.8034 83.8978 20.5983 83.6309 20.4746C83.3704 20.3509 83.0482 20.2891 82.6641 20.2891C82.2474 20.2891 81.8893 20.3704 81.5898 20.5332C81.2904 20.6895 81.043 20.9076 80.8477 21.1875C80.6589 21.4674 80.5156 21.7897 80.418 22.1543C80.3268 22.5189 80.2812 22.9128 80.2812 23.3359ZM95.623 26.4902V18.4336H98.2207V29H95.7793L95.623 26.4902ZM95.9551 24.3027L96.7559 24.2832C96.7559 24.9928 96.6777 25.6471 96.5215 26.2461C96.3652 26.8451 96.1211 27.3659 95.7891 27.8086C95.4635 28.2448 95.0501 28.5866 94.5488 28.834C94.0475 29.0749 93.4551 29.1953 92.7715 29.1953C92.2507 29.1953 91.7754 29.1237 91.3457 28.9805C90.916 28.8307 90.5449 28.5996 90.2324 28.2871C89.9264 27.9681 89.6888 27.5612 89.5195 27.0664C89.3503 26.5651 89.2656 25.9629 89.2656 25.2598V18.4336H91.8438V25.2793C91.8438 25.6309 91.8828 25.9238 91.9609 26.1582C92.0456 26.3926 92.1595 26.5846 92.3027 26.7344C92.4525 26.8776 92.625 26.9818 92.8203 27.0469C93.0221 27.1055 93.237 27.1348 93.4648 27.1348C94.0898 27.1348 94.5814 27.0111 94.9395 26.7637C95.304 26.5098 95.5645 26.1712 95.7207 25.748C95.877 25.3184 95.9551 24.8366 95.9551 24.3027ZM100.496 14H103.084V26.666L102.83 29H100.496V14ZM109.881 23.6094V23.8145C109.881 24.6022 109.793 25.3249 109.617 25.9824C109.448 26.64 109.191 27.2096 108.846 27.6914C108.501 28.1667 108.071 28.5378 107.557 28.8047C107.049 29.0651 106.453 29.1953 105.77 29.1953C105.118 29.1953 104.552 29.0684 104.07 28.8145C103.595 28.5605 103.195 28.2025 102.869 27.7402C102.544 27.2715 102.283 26.7214 102.088 26.0898C101.893 25.4518 101.746 24.7552 101.648 24V23.4434C101.746 22.6816 101.893 21.985 102.088 21.3535C102.283 20.722 102.544 20.1719 102.869 19.7031C103.195 19.2344 103.595 18.873 104.07 18.6191C104.546 18.3652 105.105 18.2383 105.75 18.2383C106.44 18.2383 107.042 18.3717 107.557 18.6387C108.077 18.8991 108.507 19.2702 108.846 19.752C109.191 20.2272 109.448 20.7936 109.617 21.4512C109.793 22.1022 109.881 22.8216 109.881 23.6094ZM107.293 23.8145V23.6094C107.293 23.1602 107.257 22.737 107.186 22.3398C107.114 21.9362 106.997 21.5814 106.834 21.2754C106.671 20.9694 106.45 20.7285 106.17 20.5527C105.89 20.377 105.538 20.2891 105.115 20.2891C104.712 20.2891 104.367 20.3574 104.08 20.4941C103.8 20.6309 103.566 20.8197 103.377 21.0605C103.195 21.3014 103.051 21.5846 102.947 21.9102C102.85 22.2357 102.785 22.5872 102.752 22.9648V24.4883C102.798 24.9896 102.905 25.4421 103.074 25.8457C103.243 26.2428 103.494 26.5586 103.826 26.793C104.165 27.0273 104.601 27.1445 105.135 27.1445C105.551 27.1445 105.9 27.0632 106.18 26.9004C106.46 26.7311 106.681 26.4967 106.844 26.1973C107.007 25.8913 107.12 25.5365 107.186 25.1328C107.257 24.7292 107.293 24.2897 107.293 23.8145Z" fill="black"/>
<path d="M56.2188 14.7812V29H53.5332V14.7812H56.2188ZM64.9297 14.7812V29H62.2539V14.7812H64.9297ZM69.3438 14.7812V16.9004H57.8887V14.7812H69.3438Z" fill="#F5F5F5"/>
</svg>
