<svg width="20" height="20" viewBox="0 0 20 20" fill="none" xmlns="http://www.w3.org/2000/svg">
<path d="M14.5833 0H5.41667C3.34917 0 1.66667 1.6825 1.66667 3.75V16.25C1.66667 18.3175 3.34917 20 5.41667 20H14.5833C16.6508 20 18.3333 18.3175 18.3333 16.25V3.75C18.3333 1.6825 16.6508 0 14.5833 0ZM5.41667 0.833333H14.5833C16.1917 0.833333 17.5 2.14167 17.5 3.75V4.16667H2.50001V3.75C2.50001 2.14167 3.80834 0.833333 5.41667 0.833333ZM14.5833 19.1667H5.41667C3.80834 19.1667 2.50001 17.8583 2.50001 16.25V5H17.5V16.25C17.5 17.8583 16.1917 19.1667 14.5833 19.1667ZM15 8.75C15 8.98 14.8133 9.16667 14.5833 9.16667H5.41667C5.18667 9.16667 5.00001 8.98 5.00001 8.75C5.00001 8.52 5.18667 8.33333 5.41667 8.33333H14.5833C14.8133 8.33333 15 8.52 15 8.75ZM11.6667 12.0833C11.6667 12.3133 11.48 12.5 11.25 12.5H5.41667C5.18667 12.5 5.00001 12.3133 5.00001 12.0833C5.00001 11.8533 5.18667 11.6667 5.41667 11.6667H11.25C11.48 11.6667 11.6667 11.8533 11.6667 12.0833Z" fill="#E8820A"/>
</svg>
