<svg width="20" height="20" viewBox="0 0 20 20" fill="none" xmlns="http://www.w3.org/2000/svg">
<g clip-path="url(#clip0_35_149)">
<path fill-rule="evenodd" clip-rule="evenodd" d="M2.49998 4.16665C2.49998 3.70641 2.87308 3.33331 3.33332 3.33331H18.3333C18.7936 3.33331 19.1667 3.70641 19.1667 4.16665C19.1667 4.62688 18.7936 4.99998 18.3333 4.99998H3.33332C2.87308 4.99998 2.49998 4.62688 2.49998 4.16665ZM2.49998 9.99998C2.49998 9.53974 2.87308 9.16665 3.33332 9.16665H13.3333C13.7936 9.16665 14.1667 9.53974 14.1667 9.99998C14.1667 10.4602 13.7936 10.8333 13.3333 10.8333H3.33332C2.87308 10.8333 2.49998 10.4602 2.49998 9.99998ZM2.49998 15.8333C2.49998 15.3731 2.87308 15 3.33332 15H8.33332C8.79356 15 9.16665 15.3731 9.16665 15.8333C9.16665 16.2936 8.79356 16.6666 8.33332 16.6666H3.33332C2.87308 16.6666 2.49998 16.2936 2.49998 15.8333Z" fill="#E8820A"/>
</g>
<defs>
<clipPath id="clip0_35_149">
<rect width="20" height="20" fill="white"/>
</clipPath>
</defs>
</svg>
