<svg width="24" height="24" viewBox="0 0 24 24" fill="none" xmlns="http://www.w3.org/2000/svg">
<path d="M23.6082 11.4533L2.47248 0.191882C2.21209 0.0532778 1.92281 -0.0121323 1.63207 0.0018515C1.34132 0.0158353 1.05875 0.10875 0.811115 0.271788C0.563485 0.434827 0.359006 0.662588 0.217058 0.933486C0.0751108 1.20438 0.000397748 1.50944 0 1.81975V8.57419C0.00148063 8.99198 0.13668 9.39672 0.383234 9.72145C0.629787 10.0462 0.972922 10.2714 1.35588 10.36L8.19222 12L1.35588 13.64C0.972922 13.7286 0.629787 13.9538 0.383234 14.2785C0.13668 14.6033 0.00148063 15.008 0 15.4258V22.1802C0.000397748 22.4906 0.0751108 22.7956 0.217058 23.0665C0.359006 23.3374 0.563485 23.5652 0.811115 23.7282C1.05875 23.8912 1.34132 23.9842 1.63207 23.9981C1.92281 24.0121 2.21209 23.9467 2.47248 23.8081L23.6082 12.6074C23.7222 12.5675 23.8214 12.4902 23.8918 12.3866C23.9621 12.2829 24 12.1583 24 12.0304C24 11.9024 23.9621 11.7778 23.8918 11.6742C23.8214 11.5706 23.7222 11.4933 23.6082 11.4533Z" fill="#E8820A"/>
</svg>
