<svg width="20" height="20" viewBox="0 0 20 20" fill="none" xmlns="http://www.w3.org/2000/svg">
<path d="M10.0228 0L9.97722 0C4.46695 0 0 4.46696 0 9.97723L0 10.0228C0 15.533 4.46695 20 9.97722 20H10.0228C15.533 20 20 15.533 20 10.0228V9.97723C20 4.46696 15.533 0 10.0228 0Z" fill="#E8820A"/>
<path d="M3.78798 9.65909C3.816 9.64508 3.84404 9.63177 3.87137 9.61915C4.34644 9.39913 4.82782 9.19313 5.3085 8.98713C5.33443 8.98713 5.37786 8.957 5.40239 8.94719C5.43952 8.93107 5.47667 8.91566 5.5138 8.89954C5.58527 8.86871 5.65675 8.83858 5.72752 8.80775C5.87046 8.74679 6.01269 8.68582 6.15564 8.62486L7.01118 8.2584C7.58155 8.01456 8.15263 7.77001 8.723 7.52617C9.29337 7.28233 9.86443 7.03778 10.4348 6.79394C11.0052 6.5501 11.5762 6.30556 12.1466 6.06172C12.717 5.81787 13.288 5.57333 13.8584 5.32949C13.9852 5.27483 14.1226 5.19355 14.2585 5.16973C14.3727 5.14941 14.4841 5.11017 14.599 5.08845C14.817 5.04711 15.0573 5.03029 15.2661 5.12068C15.3383 5.15221 15.4048 5.19635 15.4602 5.25171C15.7251 5.51377 15.6879 5.944 15.6319 6.31256C15.2416 8.88132 14.8513 11.4508 14.4603 14.0195C14.407 14.372 14.3342 14.7588 14.056 14.9816C13.8206 15.1701 13.4856 15.1911 13.1948 15.1112C12.904 15.0306 12.6476 14.8618 12.3961 14.6957C11.3527 14.0048 10.3087 13.3139 9.26534 12.623C9.01729 12.4591 8.74122 12.2447 8.74402 11.9469C8.74543 11.7675 8.85262 11.6077 8.96193 11.4655C9.86863 10.2827 11.1768 9.46991 12.1501 8.34178C12.2874 8.18272 12.3954 7.89544 12.2069 7.80365C12.0948 7.74899 11.9658 7.82327 11.8635 7.89404C10.577 8.78743 9.29127 9.68152 8.00479 10.5749C7.58507 10.8664 7.14503 11.1663 6.63913 11.2378C6.18648 11.3022 5.73103 11.1761 5.29309 11.0472C4.92592 10.9393 4.55945 10.8286 4.19438 10.7143C4.00029 10.6541 3.79989 10.5889 3.64994 10.4523C3.49999 10.3156 3.41382 10.0858 3.50421 9.90364C3.56096 9.78942 3.67098 9.71725 3.78659 9.65839L3.78798 9.65909Z" fill="black"/>
</svg>
