<svg width="21" height="21" viewBox="0 0 21 21" fill="none" xmlns="http://www.w3.org/2000/svg">
<path fill-rule="evenodd" clip-rule="evenodd" d="M14.0282 0.958374H7.88843C2.28504 0.958374 0.958298 2.28512 0.958298 7.88851V14.0282C0.958298 19.6316 2.28504 20.9584 7.88843 20.9584H14.0282C19.6315 20.9584 20.9583 19.6316 20.9583 14.0282V7.88851C20.9583 2.28512 19.6315 0.958374 14.0282 0.958374ZM16.8934 7.30982C17.3309 7.30982 17.4297 7.53565 17.3309 7.84616C17.1767 8.5578 15.8963 10.4455 15.4997 11.0302C15.4243 11.1413 15.3809 11.2054 15.3832 11.2054C15.2279 11.4594 15.1714 11.5723 15.3832 11.8546C15.4597 11.959 15.622 12.1182 15.8074 12.3003C15.9982 12.4874 16.2135 12.6987 16.3853 12.8991C17.0063 13.6048 17.4862 14.1976 17.6132 14.6069C17.7261 15.0162 17.5285 15.228 17.1051 15.228H15.6513C15.2661 15.228 15.0675 15.0067 14.6442 14.5352C14.4628 14.333 14.24 14.0848 13.9435 13.7883C13.0825 12.9556 12.7014 12.8426 12.4897 12.8426C12.1933 12.8426 12.1086 12.9132 12.1086 13.3366V14.6493C12.1086 15.0021 11.9957 15.2138 11.0642 15.2138C9.52571 15.2138 7.81787 14.2823 6.61816 12.5462C4.81152 10.0057 4.31752 8.08611 4.31752 7.70502C4.31752 7.49331 4.38809 7.29571 4.81152 7.29571H6.27941C6.64638 7.29571 6.78753 7.45096 6.92867 7.86028C7.6485 9.93508 8.84822 11.7558 9.34222 11.7558C9.52571 11.7558 9.61039 11.6711 9.61039 11.2054V9.06C9.57555 8.45019 9.36327 8.18451 9.20586 7.98749C9.10823 7.8653 9.03171 7.76952 9.03171 7.63445C9.03171 7.46508 9.17285 7.29571 9.39868 7.29571H11.6852C11.9957 7.29571 12.1086 7.46508 12.1086 7.83205V10.7255C12.1086 11.036 12.2357 11.1489 12.3345 11.1489C12.5179 11.1489 12.6732 11.036 13.0119 10.6973C14.0564 9.52577 14.8045 7.71914 14.8045 7.71914C14.9033 7.50742 15.0726 7.30982 15.4396 7.30982H16.8934Z" fill="#E8820A"/>
</svg>
