<svg width="22" height="20" viewBox="0 0 22 20" fill="none" xmlns="http://www.w3.org/2000/svg">
<path d="M3.88845 17.9371L5.58175 16.64L5.5942 16.6309C5.94721 16.3605 6.12534 16.224 6.32409 16.1268C6.5024 16.0396 6.69253 15.9761 6.88867 15.9375C7.10975 15.8941 7.34004 15.8941 7.8023 15.8941H17.4479C18.69 15.8941 19.3118 15.8941 19.7867 15.6624C20.2048 15.4584 20.545 15.1326 20.758 14.7322C21 14.2775 21 13.6828 21 12.4935V4.40108C21 3.21177 21 2.61622 20.758 2.16152C20.545 1.76117 20.2041 1.4359 19.786 1.23191C19.3106 1 18.6892 1 17.4447 1H4.55577C3.31121 1 2.68847 1 2.21311 1.23191C1.79497 1.4359 1.45526 1.76117 1.24221 2.16152C1 2.61667 1 3.21293 1 4.40457V16.6082C1 17.7419 1 18.3087 1.24273 18.5998C1.45383 18.853 1.77382 19.0003 2.1122 19C2.50128 18.9996 2.96382 18.6453 3.88845 17.9371Z" stroke="#B2B1B1" stroke-width="2" stroke-linecap="round" stroke-linejoin="round"/>
</svg>
