<svg width="29" height="32" viewBox="0 0 29 32" fill="none" xmlns="http://www.w3.org/2000/svg">
<g clip-path="url(#clip0_61_182)">
<path d="M24.9668 26.3792L18.4883 20.2092C19.8156 18.8058 20.625 16.9492 20.625 14.9167C20.625 10.5517 16.8958 7 12.3125 7C7.72925 7 4 10.5517 4 14.9167C4 19.2817 7.72925 22.8333 12.3125 22.8333C14.4475 22.8333 16.3961 22.0625 17.8696 20.7983L24.3481 26.9683L24.9668 26.3792ZM12.3125 22C8.21138 22 4.875 18.8225 4.875 14.9167C4.875 11.0108 8.21138 7.83333 12.3125 7.83333C16.4136 7.83333 19.75 11.0108 19.75 14.9167C19.75 18.8225 16.4136 22 12.3125 22ZM14.0406 12C13.3048 12 12.687 12.3017 12.302 12.7942C11.9056 12.305 11.2756 12 10.5406 12C9.334 12 8.35313 13.0092 8.35313 14.25C8.35313 16.325 11.6606 18.6133 12.0378 18.8675L12.2906 19.0375L12.5435 18.8675C12.9206 18.6133 16.2281 16.325 16.2281 14.25C16.2281 13.0092 15.2473 12 14.0406 12ZM12.2906 18.0108C11.2476 17.2558 9.22813 15.5317 9.22813 14.25C9.22813 13.4683 9.817 12.8333 10.5406 12.8333C11.3264 12.8333 11.875 13.3475 11.875 14.0833H12.75C12.75 13.3358 13.2689 12.8333 14.0406 12.8333C14.7643 12.8333 15.3531 13.4692 15.3531 14.25C15.3531 15.5317 13.3336 17.255 12.2906 18.0108Z" fill="#E8820A"/>
</g>
<defs>
<clipPath id="clip0_61_182">
<rect width="21" height="20" fill="white" transform="translate(4 7)"/>
</clipPath>
</defs>
</svg>
