<svg width="20" height="20" viewBox="0 0 20 20" fill="none" xmlns="http://www.w3.org/2000/svg">
<path fill-rule="evenodd" clip-rule="evenodd" d="M10 0.416748C7.81389 0.416748 6.04168 2.18895 6.04168 4.37508C6.04168 6.56121 7.81389 8.33341 10 8.33341C12.1861 8.33341 13.9583 6.56121 13.9583 4.37508C13.9583 2.18895 12.1861 0.416748 10 0.416748ZM7.70835 4.37508C7.70835 3.10943 8.73436 2.08341 10 2.08341C11.2657 2.08341 12.2917 3.10943 12.2917 4.37508C12.2917 5.64073 11.2657 6.66675 10 6.66675C8.73436 6.66675 7.70835 5.64073 7.70835 4.37508Z" fill="#E8820A"/>
<path fill-rule="evenodd" clip-rule="evenodd" d="M10 10.0001C3.44583 10.0001 1.25002 13.5646 1.25002 15.4167C1.25002 16.2311 1.52511 16.9745 2.06701 17.5164C2.60891 18.0583 3.35231 18.3334 4.16668 18.3334H15.8333C16.6477 18.3334 17.3911 18.0583 17.933 17.5164C18.4749 16.9745 18.75 16.2311 18.75 15.4167C18.75 13.5646 16.5542 10.0001 10 10.0001ZM2.91668 15.4167C2.91668 14.7689 4.0542 11.6667 10 11.6667C15.9458 11.6667 17.0833 14.7689 17.0833 15.4167C17.0833 15.8524 16.9418 16.1506 16.7545 16.3379C16.5672 16.5252 16.269 16.6667 15.8333 16.6667H4.16668C3.73105 16.6667 3.43279 16.5252 3.24552 16.3379C3.05825 16.1506 2.91668 15.8524 2.91668 15.4167Z" fill="#E8820A"/>
</svg>
